HIERARCHY
ROOT joint_0
{
	OFFSET 0.000000 0.000000 0.000000
	CHANNELS 6 Xposition Yposition Zposition Zrotation Yrotation Xrotation 
	JOINT joint_1
	{
		OFFSET 6.579712 -2.778931 100.531982
		CHANNELS 3 Zrotation Yrotation Xrotation
		JOINT joint_2
		{
			OFFSET -3.313232 -1.302856 91.974976
			CHANNELS 3 Zrotation Yrotation Xrotation
			JOINT joint_3
			{
				OFFSET -3.421509 -1.641846 91.864014
				CHANNELS 3 Zrotation Yrotation Xrotation
				JOINT joint_4
				{
					OFFSET 7.697388 -4.642578 123.278931
					CHANNELS 3 Zrotation Yrotation Xrotation
					JOINT joint_5
					{
						OFFSET 24.842529 -5.941528 79.695068
						CHANNELS 3 Zrotation Yrotation Xrotation
						End Site
						{
							OFFSET 0.000000 0.000000 0.000000
						}
					}
				}
				JOINT joint_6
				{
					OFFSET -0.159668 -29.112976 68.364014
					CHANNELS 3 Zrotation Yrotation Xrotation
					JOINT joint_7
					{
						OFFSET -18.356079 -115.987061 -20.069092
						CHANNELS 3 Zrotation Yrotation Xrotation
						JOINT joint_8
						{
							OFFSET 31.719482 -11.733276 -267.170898
							CHANNELS 3 Zrotation Yrotation Xrotation
							JOINT joint_9
							{
								OFFSET 29.329956 -5.879517 -234.654053
								CHANNELS 3 Zrotation Yrotation Xrotation
								End Site
								{
									OFFSET 0.000000 0.000000 0.000000
								}
							}
						}
					}
				}
				JOINT joint_10
				{
					OFFSET 8.802979 23.897949 69.798950
					CHANNELS 3 Zrotation Yrotation Xrotation
					JOINT joint_11
					{
						OFFSET 21.159058 115.524292 -19.981934
						CHANNELS 3 Zrotation Yrotation Xrotation
						JOINT joint_12
						{
							OFFSET 18.809204 5.403442 -268.593018
							CHANNELS 3 Zrotation Yrotation Xrotation
							JOINT joint_13
							{
								OFFSET 20.807861 0.421265 -235.639038
								CHANNELS 3 Zrotation Yrotation Xrotation
								End Site
								{
									OFFSET 0.000000 0.000000 0.000000
								}
							}
						}
					}
				}
			}
		}
	}
	JOINT joint_14
	{
		OFFSET -9.713379 -79.513916 -99.348022
		CHANNELS 3 Zrotation Yrotation Xrotation
		JOINT joint_15
		{
			OFFSET -40.607788 -6.518372 -502.938019
			CHANNELS 3 Zrotation Yrotation Xrotation
			JOINT joint_16
			{
				OFFSET -19.807617 -7.437378 -399.590012
				CHANNELS 3 Zrotation Yrotation Xrotation
				JOINT joint_17
				{
					OFFSET 171.701660 -44.751282 -77.782000
					CHANNELS 3 Zrotation Yrotation Xrotation
					End Site
					{
						OFFSET 0.000000 0.000000 0.000000
					}
				}
			}
		}
	}
	JOINT joint_18
	{
		OFFSET 17.854858 79.618652 -98.128052
		CHANNELS 3 Zrotation Yrotation Xrotation
		JOINT joint_19
		{
			OFFSET -24.848877 16.861816 -503.722992
			CHANNELS 3 Zrotation Yrotation Xrotation
			JOINT joint_20
			{
				OFFSET -30.162476 14.470093 -398.750008
				CHANNELS 3 Zrotation Yrotation Xrotation
				JOINT joint_21
				{
					OFFSET 176.096680 -10.987549 -80.021000
					CHANNELS 3 Zrotation Yrotation Xrotation
					End Site
					{
						OFFSET 0.000000 0.000000 0.000000
					}
				}
			}
		}
	}
}
MOTION
Frames: 7
Frame Time: 0.016667
-1020.034363 843.118103 1096.662964 14.890996 0.232570 -0.475838 -0.007814 -2.833874 -1.634018 0.157390 0.401929 0.313000 0.118548 -0.606022 -0.271597 0.123542 2.298884 0.088266 0.000000 0.000000 0.000000 -0.359997 4.027244 0.001061 0.048716 3.627356 2.153418 0.355375 -2.657795 2.453165 0.000000 0.000000 0.000000 1.142045 1.293930 2.303228 -0.054010 1.730870 -1.250733 0.065925 -0.114567 0.787162 0.000000 0.000000 0.000000 1.854641 0.830941 -0.354461 1.796452 0.860281 0.313821 1.880514 -2.688634 0.153832 0.000000 0.000000 0.000000 -1.418268 1.682416 0.363449 -1.418318 0.415656 -0.086108 -1.465917 -2.342080 -0.810818 0.000000 0.000000 0.000000 
-1019.832214 843.230469 1096.646973 14.874158 0.247320 -0.468836 -0.010086 -2.825536 -1.633391 0.154313 0.400286 0.313508 0.115494 -0.604075 -0.271484 0.124237 2.305941 0.087180 0.000000 0.000000 0.000000 -0.356973 4.025119 -0.001875 0.048459 3.625302 2.153259 0.355328 -2.663114 2.451975 0.000000 0.000000 0.000000 1.145948 1.290999 2.299310 -0.054224 1.726536 -1.250387 0.065662 -0.114173 0.783832 0.000000 0.000000 0.000000 1.860777 0.821584 -0.366102 1.801650 0.870732 0.311849 1.885889 -2.693181 0.155107 0.000000 0.000000 0.000000 -1.411285 1.674921 0.349866 -1.411548 0.429828 -0.083170 -1.460176 -2.357984 -0.809184 0.000000 0.000000 0.000000 
-1019.644592 843.342041 1096.630981 14.857829 0.260171 -0.462490 -0.015571 -2.813570 -1.625590 0.147443 0.399049 0.310338 0.108886 -0.600622 -0.268988 0.125342 2.307879 0.083860 0.000000 0.000000 0.000000 -0.346300 4.022051 -0.005420 0.047707 3.623983 2.150666 0.355358 -2.674355 2.450549 0.000000 0.000000 0.000000 1.156011 1.285935 2.291142 -0.054382 1.718123 -1.249244 0.065660 -0.108653 0.782233 0.000000 0.000000 0.000000 1.866929 0.813509 -0.377805 1.806744 0.881237 0.311418 1.891277 -2.698050 0.156300 0.000000 0.000000 0.000000 -1.404337 1.666162 0.335669 -1.404757 0.449251 -0.078308 -1.454495 -2.374810 -0.807637 0.000000 0.000000 0.000000 
-1019.466125 843.452454 1096.614990 14.841268 0.270741 -0.456601 -0.023024 -2.797869 -1.614156 0.138290 0.397294 0.306364 0.100047 -0.597016 -0.266250 0.126866 2.308225 0.078899 0.000000 0.000000 0.000000 -0.332566 4.018495 -0.008400 0.046519 3.623276 2.145441 0.355479 -2.688835 2.449528 0.000000 0.000000 0.000000 1.168806 1.279902 2.280687 -0.054497 1.707774 -1.247590 0.065775 -0.101094 0.781506 0.000000 0.000000 0.000000 1.873390 0.807523 -0.389534 1.812088 0.891271 0.312018 1.896949 -2.702419 0.157750 0.000000 0.000000 0.000000 -1.397328 1.657918 0.321138 -1.397917 0.471794 -0.071913 -1.448776 -2.392028 -0.806097 0.000000 0.000000 0.000000 
-1019.293213 843.557739 1096.602051 14.824480 0.280484 -0.450867 -0.028229 -2.781933 -1.604995 0.131543 0.394874 0.303643 0.093583 -0.592680 -0.263873 0.127354 2.307597 0.077102 0.000000 0.000000 0.000000 -0.327528 4.014868 -0.011298 0.045320 3.621147 2.139359 0.355779 -2.701875 2.450516 0.000000 0.000000 0.000000 1.173294 1.272161 2.273430 -0.054733 1.698115 -1.248127 0.065768 -0.094961 0.779694 0.000000 0.000000 0.000000 1.879829 0.801752 -0.401619 1.817264 0.901936 0.313983 1.902581 -2.707232 0.159065 0.000000 0.000000 0.000000 -1.390648 1.650392 0.306769 -1.391463 0.493955 -0.064743 -1.443334 -2.408599 -0.804642 0.000000 0.000000 0.000000 
-1019.128845 843.656860 1096.593994 14.808304 0.289524 -0.445059 -0.030840 -2.765854 -1.599777 0.127678 0.394121 0.302053 0.089869 -0.590254 -0.262365 0.126193 2.306962 0.080590 0.000000 0.000000 0.000000 -0.334840 4.010791 -0.013074 0.044022 3.616978 2.131132 0.356314 -2.711956 2.454384 0.000000 0.000000 0.000000 1.168855 1.262456 2.272047 -0.055240 1.689861 -1.253163 0.065619 -0.091968 0.777031 0.000000 0.000000 0.000000 1.886095 0.795715 -0.414910 1.821968 0.913818 0.318259 1.907945 -2.712195 0.160216 0.000000 0.000000 0.000000 -1.384690 1.643390 0.292396 -1.385816 0.515239 -0.056716 -1.438565 -2.424923 -0.803478 0.000000 0.000000 0.000000 
-1018.969666 843.749939 1096.588013 14.791977 0.297419 -0.439282 -0.031275 -2.748232 -1.597674 0.126199 0.391627 0.303479 0.088385 -0.587334 -0.263273 0.123622 2.304952 0.088348 0.000000 0.000000 0.000000 -0.350953 4.006797 -0.014113 0.042766 3.611552 2.122497 0.356996 -2.720366 2.459974 0.000000 0.000000 0.000000 1.155719 1.251219 2.275311 -0.055887 1.682838 -1.260683 0.065324 -0.091271 0.773219 0.000000 0.000000 0.000000 1.892154 0.790344 -0.428473 1.826355 0.926050 0.323697 1.913112 -2.717968 0.161065 0.000000 0.000000 0.000000 -1.378968 1.637515 0.278374 -1.380437 0.536010 -0.048472 -1.433999 -2.440721 -0.802373 0.000000 0.000000 0.000000 
